<svg xmlns="http://www.w3.org/2000/svg" xmlns:xlink="http://www.w3.org/1999/xlink" width="100" zoomAndPan="magnify" viewBox="0 0 75 74.999997" height="100" preserveAspectRatio="xMidYMid meet" version="1.2"><defs/><g id="64af7cfa22"><rect x="0" width="75" y="0" height="74.999997" style="fill:#ffffff;fill-opacity:1;stroke:none;"/><rect x="0" width="75" y="0" height="74.999997" style="fill:#00d2ff;fill-opacity:1;stroke:none;"/><g style="fill:#ffffff;fill-opacity:1;"><g transform="translate(4.616654, 53.725772)"><path style="stroke:none" d="M 0 -47.582031 L 34.679688 -47.582031 L 34.679688 2.421875 L -2.421875 2.421875 L -2.421875 -47.582031 Z M 0 -42.742188 L 0 -45.160156 L 2.421875 -45.160156 L 2.421875 0 L 0 0 L 0 -2.421875 L 32.257812 -2.421875 L 32.257812 0 L 29.839844 0 L 29.839844 -45.160156 L 32.257812 -45.160156 L 32.257812 -42.742188 Z M 27.097656 -39.515625 L 5.160156 -39.515625 L 5.160156 -41.9375 L 7.175781 -43.277344 L 18.144531 -26.828125 L 16.128906 -25.484375 L 14.117188 -26.828125 L 25.082031 -43.277344 L 27.097656 -41.9375 Z M 31.621094 -44.355469 L 16.128906 -21.121094 L 0.640625 -44.355469 Z M 1.210938 -7.472656 L 12.179688 -23.921875 L 14.195312 -22.582031 L 12.179688 -21.238281 L 1.210938 -37.691406 L 3.226562 -39.03125 L 5.644531 -39.03125 L 5.644531 -6.128906 L 3.226562 -6.128906 Z M 0.804688 1.863281 L 0.804688 -47.027344 L 17.101562 -22.582031 L 5.238281 -4.785156 Z M 26.613281 -6.128906 L 26.613281 -39.03125 L 29.03125 -39.03125 L 31.046875 -37.691406 L 20.078125 -21.238281 L 18.066406 -22.582031 L 20.078125 -23.921875 L 31.046875 -7.472656 L 29.03125 -6.128906 Z M 31.453125 1.863281 L 15.15625 -22.582031 L 31.453125 -47.027344 Z M 25.082031 -1.882812 L 14.117188 -18.335938 L 16.128906 -19.679688 L 18.144531 -18.335938 L 7.175781 -1.882812 L 5.160156 -3.226562 L 5.160156 -5.644531 L 27.097656 -5.644531 L 27.097656 -3.226562 Z M 31.621094 -0.804688 L 0.640625 -0.804688 L 16.128906 -24.039062 L 29.109375 -4.570312 Z M 31.621094 -0.804688 "/></g></g><g style="fill:#ffffff;fill-opacity:1;"><g transform="translate(36.868788, 53.725772)"><path style="stroke:none" d="M 0 -47.582031 L 34.679688 -47.582031 L 34.679688 2.421875 L -2.421875 2.421875 L -2.421875 -47.582031 Z M 0 -42.742188 L 0 -45.160156 L 2.421875 -45.160156 L 2.421875 0 L 0 0 L 0 -2.421875 L 32.257812 -2.421875 L 32.257812 0 L 29.839844 0 L 29.839844 -45.160156 L 32.257812 -45.160156 L 32.257812 -42.742188 Z M 27.097656 -39.515625 L 5.160156 -39.515625 L 5.160156 -41.9375 L 7.175781 -43.277344 L 18.144531 -26.828125 L 16.128906 -25.484375 L 14.117188 -26.828125 L 25.082031 -43.277344 L 27.097656 -41.9375 Z M 31.621094 -44.355469 L 16.128906 -21.121094 L 0.640625 -44.355469 Z M 1.210938 -7.472656 L 12.179688 -23.921875 L 14.195312 -22.582031 L 12.179688 -21.238281 L 1.210938 -37.691406 L 3.226562 -39.03125 L 5.644531 -39.03125 L 5.644531 -6.128906 L 3.226562 -6.128906 Z M 0.804688 1.863281 L 0.804688 -47.027344 L 17.101562 -22.582031 L 5.238281 -4.785156 Z M 26.613281 -6.128906 L 26.613281 -39.03125 L 29.03125 -39.03125 L 31.046875 -37.691406 L 20.078125 -21.238281 L 18.066406 -22.582031 L 20.078125 -23.921875 L 31.046875 -7.472656 L 29.03125 -6.128906 Z M 31.453125 1.863281 L 15.15625 -22.582031 L 31.453125 -47.027344 Z M 25.082031 -1.882812 L 14.117188 -18.335938 L 16.128906 -19.679688 L 18.144531 -18.335938 L 7.175781 -1.882812 L 5.160156 -3.226562 L 5.160156 -5.644531 L 27.097656 -5.644531 L 27.097656 -3.226562 Z M 31.621094 -0.804688 L 0.640625 -0.804688 L 16.128906 -24.039062 L 29.109375 -4.570312 Z M 31.621094 -0.804688 "/></g></g><g style="fill:#000000;fill-opacity:1;"><g transform="translate(4.616654, 53.725772)"><path style="stroke:none" d="M 0 -45.15625 L 32.25 -45.15625 L 32.25 0 L 0 0 Z M 27.09375 -41.9375 L 5.15625 -41.9375 L 16.125 -25.484375 Z M 3.21875 -6.125 L 14.1875 -22.578125 L 3.21875 -39.03125 Z M 29.03125 -6.125 L 29.03125 -39.03125 L 18.0625 -22.578125 Z M 27.09375 -3.21875 L 16.125 -19.671875 L 5.15625 -3.21875 Z M 27.09375 -3.21875 "/></g></g><g style="fill:#000000;fill-opacity:1;"><g transform="translate(36.868788, 53.725772)"><path style="stroke:none" d="M 0 -45.15625 L 32.25 -45.15625 L 32.25 0 L 0 0 Z M 27.09375 -41.9375 L 5.15625 -41.9375 L 16.125 -25.484375 Z M 3.21875 -6.125 L 14.1875 -22.578125 L 3.21875 -39.03125 Z M 29.03125 -6.125 L 29.03125 -39.03125 L 18.0625 -22.578125 Z M 27.09375 -3.21875 L 16.125 -19.671875 L 5.15625 -3.21875 Z M 27.09375 -3.21875 "/></g></g></g></svg>